<?xml version="1.0" standalone="no"?><!DOCTYPE svg PUBLIC "-//W3C//DTD SVG 1.1//EN" "http://www.w3.org/Graphics/SVG/1.1/DTD/svg11.dtd"><svg class="icon" width="200px" height="200.00px" viewBox="0 0 1024 1024" version="1.1" xmlns="http://www.w3.org/2000/svg"><path d="M656 392.48l4.48-1.76c4.96-2.08 9.44-4 13.76-6.08l2.08-0.96 4.64-2.56 4.16-2.4a69.92 69.92 0 0 1 6.4-4l6.4-5.12 1.44-1.28a43.84 43.84 0 0 0 14.56-19.68 16 16 0 0 0 0.96-3.36L688 295.04a205.76 205.76 0 0 0-16-25.28v20.16a158.24 158.24 0 0 1-6.72 46.08c0 2.56-1.76 5.44-2.72 8.16a180.16 180.16 0 0 1-9.44 21.12c-1.44 2.56-2.88 5.12-4.48 7.68a106.4 106.4 0 0 1-5.76 8.96A144 144 0 0 1 628.8 400a24.64 24.64 0 0 1-2.72 3.04l16-4.8c4.8-2.24 9.6-4 13.92-5.76zM413.12 371.2a18.24 18.24 0 0 1 1.76 1.76 70.08 70.08 0 0 0 6.56 7.2l4.96 4.8 5.28 4.48 3.84 3.04a3.84 3.84 0 0 0 1.44 0.96 33.28 33.28 0 0 0 3.2 2.4h0.96l1.6 1.12 1.76 1.12 1.76 0.96c2.88 1.6 4.96 3.04 7.2 4.16a16 16 0 0 1 3.36 1.6l5.28 2.24 2.4 0.96 11.36 3.84 10.08 2.4h2.08l8.64 1.44H519.52a57.28 57.28 0 0 0 6.4 0 85.6 85.6 0 0 0 8.96-1.28 13.76 13.76 0 0 1 3.68 0c2.72 0 5.6-1.28 8.48-2.24a99.68 99.68 0 0 0 10.4-3.52 72.96 72.96 0 0 0 8.8-3.84h2.4a124.8 124.8 0 0 0 24-16 130.88 130.88 0 0 0 38.4-54.4c0.96-2.72 1.76-4.96 2.4-7.2a124.48 124.48 0 0 0 6.56-37.28v-53.6a199.68 199.68 0 0 0-256 0v64.48a7.84 7.84 0 0 1 0 1.92 61.6 61.6 0 0 0 0.96 6.72 21.76 21.76 0 0 1 0 3.2 9.44 9.44 0 0 0 0 2.72v2.24a13.92 13.92 0 0 1 0.8 3.52 16.8 16.8 0 0 0 0.96 3.36 8.32 8.32 0 0 0 0 1.76v1.44a2.24 2.24 0 0 1 0 0.96 20.32 20.32 0 0 0 0 2.24v1.44a25.12 25.12 0 0 1 1.44 3.68c0 1.76 1.44 3.68 2.24 5.6a6.24 6.24 0 0 1 0.96 1.76A52.64 52.64 0 0 0 400 352a104 104 0 0 0 13.12 19.2zM336 295.2l-26.88 49.92a8 8 0 0 0 0 2.08 51.84 51.84 0 0 0 3.04 7.52 18.24 18.24 0 0 1 1.92 3.04 72.48 72.48 0 0 0 4.8 5.6l4.8 4.64h0.8l2.08 1.92 3.68 2.72 5.44 3.68 5.28 3.2 1.92 1.12a33.12 33.12 0 0 1 4.48 2.4l2.72 1.44c4.96 2.4 10.88 4.96 17.28 7.36s9.44 3.52 14.56 5.12l16 4.48a20.64 20.64 0 0 1-2.56-2.72c-1.6-1.6-3.2-3.36-4.64-5.12l-2.72-3.04a161.92 161.92 0 0 1-16-22.72 96 96 0 0 1-5.12-9.92v-0.96a80 80 0 0 1-3.68-8.8l-1.76-4.16v-0.96-2.4a4.96 4.96 0 0 0 0-1.28 23.84 23.84 0 0 1-1.28-3.68 4.8 4.8 0 0 1 0-1.6 13.28 13.28 0 0 1 0-2.4 29.12 29.12 0 0 1-1.12-4 29.6 29.6 0 0 1-0.96-4.16c0-1.76-0.8-3.36-1.12-4.96a12.48 12.48 0 0 1 0-2.24v-1.6a46.88 46.88 0 0 1-0.8-4.64v-6.56a118.72 118.72 0 0 1 0-13.76v-20A196.16 196.16 0 0 0 336 295.2z"  /><path d="M356.32 218.08l1.12-0.96v-0.8a231.68 231.68 0 0 1 306.08-0.96l2.08 1.92h0.8a224 224 0 0 1 48 61.76l15.04 24.96a400 400 0 0 0-36.48-134.56l-13.12-27.68c-1.6-3.52-3.36-6.88-5.12-10.24A191.04 191.04 0 0 0 576 43.84a74.72 74.72 0 0 0-10.56-3.68 97.44 97.44 0 0 0-9.76-2.72 3.2 3.2 0 0 0-1.76 0l-6.08-1.28a41.76 41.76 0 0 0-3.84-1.44h-4c-4.8-0.8-9.6-1.28-14.4-1.76Q518.56 32 512 32t-12.96 0c-4.8 0-9.6 0.96-14.4 1.76a69.44 69.44 0 0 0-8.32 1.44l-6.08 1.28a3.2 3.2 0 0 0-1.76 0 97.44 97.44 0 0 0-9.76 2.72 74.72 74.72 0 0 0-10.56 3.68 181.76 181.76 0 0 0-98.4 87.84 44.64 44.64 0 0 0-2.88 5.44l-2.24 4.8-13.12 27.68A400 400 0 0 0 294.56 304l13.12-24.16a222.56 222.56 0 0 1 48.64-61.76zM784 912h-18.72v0.96a2.4 2.4 0 0 1 0 1.12 43.36 43.36 0 0 1-2.08 4.8 64 64 0 0 1-3.52 5.44 50.88 50.88 0 0 1-11.04 10.88 44.32 44.32 0 0 1-5.92 3.52 43.52 43.52 0 0 1-7.52 3.04 35.52 35.52 0 0 1-5.92 1.44A48 48 0 0 1 720 944H304a48 48 0 0 1-8.32 0 35.52 35.52 0 0 1-5.92-1.44 43.52 43.52 0 0 1-7.52-3.04 44.32 44.32 0 0 1-5.92-3.52 50.88 50.88 0 0 1-11.04-10.88 64 64 0 0 1-3.52-5.44 43.36 43.36 0 0 1-2.08-4.8v-2.08H240a14.88 14.88 0 0 0-11.04 4.64A16 16 0 0 0 224 928a48 48 0 0 0 48 48h480a48 48 0 0 0 48-48 16 16 0 0 0-16-16zM544 720a16 16 0 0 0-16-16h-48v32h48a16 16 0 0 0 16-16z"  /><path d="M304 912h416a16 16 0 0 0 16-16V592a16 16 0 0 0-16-16H304a16 16 0 0 0-16 16v304a16 16 0 0 0 16 16z m128-224a16 16 0 0 1 16-16h16v-16a16 16 0 0 1 32 0v16h16v-16a16 16 0 0 1 32 0v18.88A48 48 0 0 1 576 720a48.96 48.96 0 0 1-6.08 23.52A48 48 0 0 1 544 832v16a16 16 0 0 1-32 0v-16h-16v16a16 16 0 0 1-32 0v-16h-16a16 16 0 0 1 0-32v-96a16 16 0 0 1-16-16z"  /><path d="M560 784a16 16 0 0 0-16-16h-64v32h64a16 16 0 0 0 16-16z"  /><path d="M841.6 627.2a240 240 0 0 0-177.76-203.36c-3.68 1.44-7.84 2.72-12.16 4.16l-17.12 4.96c-3.52 1.12-7.04 1.92-10.88 2.88l-11.04 2.24a71.2 71.2 0 0 1-7.68 1.6 73.76 73.76 0 0 1-7.52 1.28h-1.44l-13.28 1.76-10.4 1.44H564.96c-5.6 0-12.96 1.28-20.48 1.6h-1.6c-3.84 0-8 1.44-12 1.92l-9.6 0.8h-17.76l-10.24-0.8-10.24 0.32h-7.2l-17.76-1.44h-7.2l-9.76-1.28-10.08-1.44H426.4l-6.88-1.28c-5.92-1.12-12.32-2.4-18.72-4l-10.88-2.72-16-4.8-12.48-4.32A240 240 0 0 0 182.4 627.2L144 992h80a80 80 0 0 1-32-64 48 48 0 0 1 48-48h16V592a48 48 0 0 1 48-48h416a48 48 0 0 1 48 48v288h16a48 48 0 0 1 48 48 80 80 0 0 1-23.36 56.48A78.08 78.08 0 0 1 800 992h80z"  /></svg>